<svg xmlns="http://www.w3.org/2000/svg" version="1.1" xmlns:xlink="http://www.w3.org/1999/xlink" xmlns:svgjs="http://svgjs.dev/svgjs" width="2000" height="1500" viewBox="0 0 2000 1500"><rect width="2000" height="1500" fill="#ffffff"></rect><g transform="matrix(0.75,0,0,0.75,250.44223746243915,216.80708502024288)"><svg viewBox="0 0 347 247" data-background-color="#ffffff" preserveAspectRatio="xMidYMid meet" height="1423" width="2000" xmlns="http://www.w3.org/2000/svg" xmlns:xlink="http://www.w3.org/1999/xlink"><g id="tight-bounds" transform="matrix(1,0,0,1,-0.1023042663109095,-0.09999999999999432)"><svg viewBox="0 0 347.2046085326218 247.2" height="247.2" width="347.2046085326218"><g><svg viewBox="0 0 508.62697513160845 362.12822400000005" height="247.2" width="347.2046085326218"><g><rect width="6.9058025461612065" height="296.64" x="351.6812560029444" y="32.74411200000003" fill="#a61713" opacity="1" stroke-width="0" stroke="transparent" fill-opacity="1" class="rect-qz-0" data-fill-palette-color="primary" rx="1%" id="qz-0" data-palette-color="#a61713"></rect></g><g transform="matrix(1,0,0,1,0,57.46411200000003)"><svg viewBox="0 0 333.60323886639674 247.2" height="247.2" width="333.60323886639674"><g id="textblocktransform"><svg viewBox="0 0 333.60323886639674 247.2" height="247.2" width="333.60323886639674" id="textblock"><g><svg viewBox="0 0 333.60323886639674 247.2" height="247.2" width="333.60323886639674"><g transform="matrix(1,0,0,1,0,0)"><svg width="333.60323886639674" viewBox="0.59 -37.989999999999995 173.70999999999998 124.27" height="247.2" data-palette-color="#a61713"><svg></svg><svg></svg><svg></svg><g class="wordmark-text-0" data-fill-palette-color="primary" id="text-0"><path transform="translate(35.89,0)" d="M17.77 1.46v0c-1.92-0.08-3.643-0.247-5.17-0.5-1.533-0.247-3.01-0.653-4.43-1.22-1.427-0.56-2.623-1.267-3.59-2.12-0.967-0.853-1.773-1.947-2.42-3.28-0.64-1.34-1.033-2.887-1.18-4.64v0c0-0.313 0.16-0.493 0.48-0.54v0c0.1 0.033 0.263 0.05 0.49 0.05v0c1.353 0 3.407-0.033 6.16-0.1 2.747-0.067 4.797-0.1 6.15-0.1v0c0.34 0 0.607 0.11 0.8 0.33 0.2 0.22 0.36 0.49 0.48 0.81 0.12 0.313 0.267 0.63 0.44 0.95 0.173 0.32 0.467 0.59 0.88 0.81 0.413 0.22 0.947 0.33 1.6 0.33v0c0.793 0 1.497-0.227 2.11-0.68 0.607-0.447 0.91-1.05 0.91-1.81v0c0-0.507-0.26-0.973-0.78-1.4-0.52-0.42-1.207-0.763-2.06-1.03-0.853-0.273-1.667-0.503-2.44-0.69-0.773-0.187-1.567-0.347-2.38-0.48-0.813-0.14-1.287-0.227-1.42-0.26v0c-3.953-1.073-6.797-2.41-8.53-4.01-1.733-1.593-2.6-3.773-2.6-6.54v0c0-1.953 0.357-3.707 1.07-5.26 0.72-1.553 1.657-2.823 2.81-3.81 1.153-0.987 2.52-1.807 4.1-2.46 1.58-0.66 3.177-1.127 4.79-1.4 1.613-0.267 3.28-0.4 5-0.4v0c4.573 0 8.22 0.847 10.94 2.54v0c0.993 0.993 1.723 1.747 2.19 2.26 0.46 0.513 0.907 1.11 1.34 1.79 0.433 0.687 0.733 1.36 0.9 2.02 0.173 0.66 0.293 1.47 0.36 2.43v0l-0.88 0.88c-3.34 0.127-7.083 0.19-11.23 0.19v0c-0.52 0-0.94-0.057-1.26-0.17-0.32-0.113-0.533-0.26-0.64-0.44-0.1-0.18-0.203-0.367-0.31-0.56-0.107-0.193-0.207-0.38-0.3-0.56-0.087-0.18-0.273-0.327-0.56-0.44-0.28-0.113-0.657-0.17-1.13-0.17v0c-0.133 0-0.343 0.023-0.63 0.07-0.28 0.047-0.613 0.123-1 0.23-0.38 0.107-0.71 0.27-0.99 0.49-0.273 0.22-0.41 0.477-0.41 0.77v0c0 0.36 0.183 0.687 0.55 0.98 0.367 0.293 0.753 0.503 1.16 0.63 0.407 0.133 0.91 0.277 1.51 0.43 0.607 0.153 0.983 0.253 1.13 0.3v0c3.547 0.9 5.66 1.453 6.34 1.66v0c3.567 1.127 6.09 2.6 7.57 4.42v0c1.367 1.693 2.05 3.817 2.05 6.37v0c0 1.547-0.2 2.957-0.6 4.23-0.393 1.267-0.917 2.34-1.57 3.22-0.653 0.88-1.467 1.66-2.44 2.34-0.98 0.687-1.97 1.233-2.97 1.64-1 0.407-2.133 0.75-3.4 1.03-1.273 0.273-2.443 0.47-3.51 0.59-1.067 0.127-2.227 0.22-3.48 0.28zM38.28-1.81v-29.73c0-0.98 0.04-1.55 0.12-1.71v0c0.147-0.227 0.383-0.34 0.71-0.34v0h0.59c0.26 0 0.437 0.017 0.53 0.05v0h1.27c1.647 0 4.133-0.043 7.46-0.13 3.333-0.08 5.83-0.12 7.49-0.12v0h6.49c0.42 0.047 0.63 0.26 0.63 0.64v0 8.15c-0.013 0.1-0.04 0.187-0.08 0.26-0.04 0.073-0.073 0.12-0.1 0.14-0.027 0.027-0.103 0.083-0.23 0.17-0.133 0.093-0.223 0.163-0.27 0.21v0h-11.33v3.03h1.08c0.94 0 2.38-0.033 4.32-0.1 1.933-0.067 3.423-0.1 4.47-0.1v0c0.453 0 0.76 0.09 0.92 0.27 0.167 0.18 0.25 0.433 0.25 0.76v0c0 0.08-0.017 0.217-0.05 0.41-0.033 0.2-0.05 0.34-0.05 0.42v0 0.93c0 0.06 0.007 0.193 0.02 0.4 0.02 0.2 0.03 0.373 0.03 0.52v0 0.69c0 0.353 0.017 0.71 0.05 1.07 0.033 0.36 0.05 0.67 0.05 0.93v0 0.63c-0.087 0.2-0.153 0.333-0.2 0.4-0.047 0.06-0.127 0.09-0.24 0.09v0-0.05c-0.607 0-1.647 0.043-3.12 0.13-1.473 0.08-2.647 0.12-3.52 0.12v0h-3.91v3.12c0.133 0 0.33 0.01 0.59 0.03 0.26 0.013 0.453 0.02 0.58 0.02v0c0.733 0 1.817-0.023 3.25-0.07 1.433-0.047 2.467-0.07 3.1-0.07v0h3.12c0.847 0 1.387 0.097 1.62 0.29v0c0.08 0.093 0.143 0.19 0.19 0.29v0 7.81c0 0.347-0.063 0.61-0.19 0.79-0.133 0.173-0.38 0.27-0.74 0.29v0h-24.17zM90.92-33.59h8.35c0.193 0.06 0.343 0.34 0.45 0.84 0.107 0.493 0.167 1.117 0.18 1.87 0.02 0.747 0.02 1.46 0 2.14-0.013 0.687-0.033 1.387-0.06 2.1-0.027 0.72-0.04 1.17-0.04 1.35v0c-0.027 0.647-0.04 1.557-0.04 2.73v0 2.59c0 1.14 0.013 2.703 0.04 4.69 0.033 1.987 0.05 3.45 0.05 4.39v0 8.89c-0.06 0.553-0.513 0.83-1.36 0.83v0h-13.68c-0.287-0.067-0.66-0.75-1.12-2.05v0c-0.307-0.867-0.823-2.283-1.55-4.25-0.727-1.967-1.35-3.697-1.87-5.19-0.52-1.487-0.99-2.93-1.41-4.33v0-0.15 0.15c-0.053 1.073-0.103 2.673-0.15 4.8-0.047 2.12-0.097 3.71-0.15 4.77v0 4.98c0 0.487-0.057 0.823-0.17 1.01-0.113 0.187-0.413 0.337-0.9 0.45v0h-10.06l-1.07-1.07c0.08-2.7 0.143-6.933 0.19-12.7 0.053-5.76 0.12-10.023 0.2-12.79v0-5.27c0.16-0.587 0.353-0.88 0.58-0.88v0 0.1c1.107 0 2.847-0.033 5.22-0.1 2.367-0.067 4.143-0.1 5.33-0.1v0h4.1c0.02 0 0.047 0.01 0.08 0.03v0c0.293 0.113 0.453 0.243 0.48 0.39v0l0.03 0.17c0.587 1.58 1.18 3.213 1.78 4.9 0.6 1.693 1.317 3.74 2.15 6.14 0.827 2.407 1.403 4.063 1.73 4.97v0-3.61c0.327-5.727 0.49-9.797 0.49-12.21v0c0-0.26 0.18-0.423 0.54-0.49 0.353-0.06 0.907-0.09 1.66-0.09zM111.91-33.89h6.25c2.233 0 4.24 0.147 6.02 0.44 1.787 0.293 3.497 0.817 5.13 1.57 1.633 0.747 2.997 1.72 4.09 2.92 1.087 1.207 1.953 2.77 2.6 4.69 0.64 1.92 0.96 4.15 0.96 6.69v0c0 1.86-0.22 3.59-0.66 5.19-0.44 1.6-1.04 2.98-1.8 4.14-0.767 1.153-1.643 2.183-2.63 3.09-0.98 0.9-2.05 1.637-3.21 2.21-1.153 0.567-2.307 1.003-3.46 1.31-1.16 0.313-2.317 0.503-3.47 0.57v0h-16.75v-32.43c0.047 0 0.137 0.01 0.27 0.03 0.127 0.013 0.217 0.02 0.27 0.02v0c0.7 0 1.76-0.073 3.18-0.22 1.427-0.147 2.497-0.22 3.21-0.22zM117.29-8.69h1.17c0.827 0 1.557-0.133 2.19-0.4 0.64-0.273 1.15-0.66 1.53-1.16 0.38-0.507 0.697-1.037 0.95-1.59 0.253-0.553 0.437-1.203 0.55-1.95 0.113-0.753 0.19-1.41 0.23-1.97 0.04-0.56 0.06-1.2 0.06-1.92v0-1.75c-0.013-0.113-0.06-0.667-0.14-1.66-0.08-0.993-0.26-1.84-0.54-2.54v0c-0.26-0.507-0.55-0.943-0.87-1.31-0.313-0.367-0.627-0.65-0.94-0.85-0.307-0.207-0.667-0.363-1.08-0.47-0.413-0.107-0.793-0.173-1.14-0.2-0.34-0.033-0.753-0.05-1.24-0.05v0 0.53h-0.73z" fill="#a61713" fill-rule="nonzero" stroke="none" stroke-width="1" stroke-linecap="butt" stroke-linejoin="miter" stroke-miterlimit="10" stroke-dasharray="" stroke-dashoffset="0" font-family="none" font-weight="none" font-size="none" text-anchor="none" style="mix-blend-mode: normal" data-fill-palette-color="primary" opacity="1"></path><path transform="translate(37.97,42.45)" d="M2.44-3.42v0-32.62c0-0.553 1.27-0.83 3.81-0.83v0c0.28 0 0.673 0.01 1.18 0.03 0.513 0.013 0.87 0.02 1.07 0.02v0c1.28 0 3.197-0.023 5.75-0.07 2.547-0.047 4.47-0.07 5.77-0.07v0c0.893 0 2.223 0.017 3.99 0.05 1.767 0.027 3.14 0.04 4.12 0.04v0c0.127 0 0.32-0.007 0.58-0.02 0.26-0.013 0.457-0.02 0.59-0.02v0c0.587 0 0.993 0.11 1.22 0.33 0.227 0.22 0.34 0.647 0.34 1.28v0 8.54c-0.947 0.08-1.93 0.133-2.95 0.16-1.027 0.027-2.33 0.047-3.91 0.06-1.58 0.02-2.567 0.03-2.96 0.03v0h-3.36c0 0.307-0.01 0.753-0.03 1.34-0.013 0.587-0.02 1.033-0.02 1.34v0 0.34c0.033 0.067 0.05 0.183 0.05 0.35v0c3.693-0.267 6.817-0.4 9.37-0.4v0c0.767 0 1.447 0.06 2.04 0.18 0.593 0.113 0.89 0.283 0.89 0.51v0 8.15c0 0.72-0.137 1.2-0.41 1.44-0.28 0.247-0.713 0.37-1.3 0.37v0c-0.127 0-0.363-0.017-0.71-0.05-0.34-0.033-0.607-0.05-0.8-0.05v0c-3.307 0.213-6.32 0.343-9.04 0.39v0c0 0.993 0.027 2.49 0.08 4.49 0.047 2.007 0.07 3.507 0.07 4.5v0 3.02c0 0.473-0.05 0.787-0.15 0.94-0.093 0.16-0.337 0.27-0.73 0.33v0c-1.56 0-3.87 0.017-6.93 0.05-3.06 0.033-5.37 0.05-6.93 0.05v0c-0.133-0.193-0.243-0.403-0.33-0.63-0.093-0.233-0.163-0.437-0.21-0.61-0.053-0.18-0.09-0.43-0.11-0.75-0.027-0.313-0.043-0.54-0.05-0.68-0.007-0.14-0.007-0.407 0-0.8 0.007-0.387 0.01-0.63 0.01-0.73zM31.35-16.21v-1.47l-0.05-0.53c0.307-2.653 0.6-4.5 0.88-5.54v0c0.633-2.447 1.773-4.49 3.42-6.13v0l0.58-0.59c0.78-0.913 1.97-1.693 3.57-2.34v0h0.92c1.6-0.667 4.223-1.287 7.87-1.86v0c0.907 0 1.86 0.07 2.86 0.21 1.007 0.14 2.12 0.367 3.34 0.68 1.22 0.32 2.393 0.827 3.52 1.52 1.133 0.687 2.073 1.51 2.82 2.47v0 0.69c2.673 3.333 4.01 7.077 4.01 11.23v0c0 4.673-1.073 8.48-3.22 11.42v0l-0.98 1.23c-0.747 0.927-1.68 1.723-2.8 2.39-1.113 0.667-2.297 1.173-3.55 1.52-1.253 0.353-2.453 0.603-3.6 0.75-1.147 0.147-2.29 0.22-3.43 0.22v0c-1.673 0-3.273-0.2-4.8-0.6-1.52-0.4-2.943-1.023-4.27-1.87-1.327-0.847-2.493-1.887-3.5-3.12-1.013-1.24-1.833-2.733-2.46-4.48-0.627-1.753-1.003-3.687-1.13-5.8zM44.78-18.55v1.07c0 5.727 1.09 8.59 3.27 8.59v0c0.6 0 1.123-0.113 1.57-0.34 0.447-0.227 0.81-0.577 1.09-1.05 0.273-0.473 0.5-0.953 0.68-1.44 0.18-0.487 0.307-1.097 0.38-1.83 0.073-0.733 0.123-1.377 0.15-1.93 0.02-0.553 0.03-1.22 0.03-2v0-0.88c0-0.847-0.047-1.66-0.14-2.44-0.1-0.78-0.267-1.567-0.5-2.36-0.24-0.787-0.603-1.42-1.09-1.9-0.487-0.48-1.08-0.72-1.78-0.72v0c-2.44 0-3.66 2.41-3.66 7.23zM66.85-16.21v-1.47l-0.05-0.53c0.307-2.653 0.6-4.5 0.88-5.54v0c0.633-2.447 1.77-4.49 3.41-6.13v0l0.59-0.59c0.78-0.913 1.967-1.693 3.56-2.34v0h0.93c1.593-0.667 4.213-1.287 7.86-1.86v0c0.913 0 1.87 0.07 2.87 0.21 1 0.14 2.11 0.367 3.33 0.68 1.227 0.32 2.403 0.827 3.53 1.52 1.133 0.687 2.073 1.51 2.82 2.47v0 0.69c2.673 3.333 4.01 7.077 4.01 11.23v0c0 4.673-1.077 8.48-3.23 11.42v0l-0.97 1.23c-0.753 0.927-1.687 1.723-2.8 2.39-1.113 0.667-2.297 1.173-3.55 1.52-1.253 0.353-2.453 0.603-3.6 0.75-1.147 0.147-2.29 0.22-3.43 0.22v0c-1.68 0-3.28-0.2-4.8-0.6-1.52-0.4-2.943-1.023-4.27-1.87-1.327-0.847-2.497-1.887-3.51-3.12-1.007-1.24-1.823-2.733-2.45-4.48-0.627-1.753-1.003-3.687-1.13-5.8zM80.27-18.55v1.07c0 5.727 1.09 8.59 3.27 8.59v0c0.607 0 1.133-0.113 1.58-0.34 0.447-0.227 0.81-0.577 1.09-1.05 0.273-0.473 0.5-0.953 0.68-1.44 0.18-0.487 0.307-1.097 0.38-1.83 0.073-0.733 0.12-1.377 0.14-1.93 0.027-0.553 0.04-1.22 0.04-2v0-0.88c0-0.847-0.05-1.66-0.15-2.44-0.093-0.78-0.26-1.567-0.5-2.36-0.233-0.787-0.593-1.42-1.08-1.9-0.487-0.48-1.08-0.72-1.78-0.72v0c-2.447 0-3.67 2.41-3.67 7.23zM111.28-33.89h6.25c2.227 0 4.233 0.147 6.02 0.44 1.78 0.293 3.487 0.817 5.12 1.57 1.64 0.747 3.003 1.72 4.09 2.92 1.093 1.207 1.96 2.77 2.6 4.69 0.647 1.92 0.97 4.15 0.97 6.69v0c0 1.86-0.22 3.59-0.66 5.19-0.44 1.6-1.043 2.98-1.81 4.14-0.767 1.153-1.64 2.183-2.62 3.09-0.987 0.9-2.057 1.637-3.21 2.21-1.16 0.567-2.317 1.003-3.47 1.31-1.153 0.313-2.31 0.503-3.47 0.57v0h-16.74v-32.43c0.047 0 0.133 0.01 0.26 0.03 0.133 0.013 0.223 0.02 0.27 0.02v0c0.7 0 1.763-0.073 3.19-0.22 1.427-0.147 2.497-0.22 3.21-0.22zM116.65-8.69h1.17c0.833 0 1.567-0.133 2.2-0.4 0.633-0.273 1.143-0.66 1.53-1.16 0.38-0.507 0.697-1.037 0.95-1.59 0.253-0.553 0.437-1.203 0.55-1.95 0.113-0.753 0.19-1.41 0.23-1.97 0.04-0.56 0.06-1.2 0.06-1.92v0-1.75c-0.013-0.113-0.063-0.667-0.15-1.66-0.08-0.993-0.257-1.84-0.53-2.54v0c-0.26-0.507-0.55-0.943-0.87-1.31-0.32-0.367-0.633-0.65-0.94-0.85-0.307-0.207-0.67-0.363-1.09-0.47-0.413-0.107-0.79-0.173-1.13-0.2-0.34-0.033-0.757-0.05-1.25-0.05v0 0.53h-0.73z" fill="#ff683c" fill-rule="nonzero" stroke="none" stroke-width="1" stroke-linecap="butt" stroke-linejoin="miter" stroke-miterlimit="10" stroke-dasharray="" stroke-dashoffset="0" font-family="none" font-weight="none" font-size="none" text-anchor="none" style="mix-blend-mode: normal" data-fill-palette-color="accent" opacity="1"></path><path transform="translate(0,84.91)" d="M0.59-18.36v0-2.68c0.16-2.28 0.657-4.36 1.49-6.24 0.827-1.88 1.88-3.463 3.16-4.75 1.273-1.287 2.75-2.373 4.43-3.26 1.673-0.887 3.427-1.533 5.26-1.94 1.833-0.407 3.727-0.61 5.68-0.61v0c1.073 0 2.19 0.09 3.35 0.27 1.167 0.18 2.4 0.463 3.7 0.85 1.3 0.393 2.55 0.967 3.75 1.72 1.193 0.76 2.183 1.653 2.97 2.68v0c1.607 1.967 2.773 4.027 3.5 6.18 0.72 2.16 1.08 4.557 1.08 7.19v0c0.053 5.507-1.15 9.937-3.61 13.29v0l-1.07 1.46c-0.947 1.3-2.3 2.387-4.06 3.26-1.753 0.873-3.51 1.477-5.27 1.81-1.76 0.333-3.533 0.5-5.32 0.5v0c-2.1 0-4.037-0.213-5.81-0.64-1.773-0.42-3.303-0.99-4.59-1.71-1.287-0.713-2.433-1.583-3.44-2.61-1.013-1.027-1.84-2.11-2.48-3.25-0.647-1.133-1.177-2.37-1.59-3.71-0.413-1.333-0.707-2.633-0.88-3.9-0.167-1.273-0.25-2.577-0.25-3.91zM20.02-28.03v0c-0.667 0-1.263 0.157-1.79 0.47-0.533 0.307-0.967 0.68-1.3 1.12-0.333 0.44-0.623 1.03-0.87 1.77-0.24 0.74-0.417 1.407-0.53 2-0.113 0.593-0.203 1.343-0.27 2.25-0.067 0.9-0.103 1.6-0.11 2.1-0.007 0.493-0.01 1.13-0.01 1.91v0c0 0.753 0.027 1.467 0.08 2.14 0.06 0.673 0.183 1.39 0.37 2.15 0.187 0.753 0.43 1.413 0.73 1.98 0.3 0.56 0.717 1.03 1.25 1.41 0.527 0.387 1.13 0.593 1.81 0.62v0c0.72 0 1.357-0.117 1.91-0.35 0.553-0.233 1.017-0.533 1.39-0.9 0.373-0.367 0.69-0.86 0.95-1.48 0.26-0.62 0.46-1.213 0.6-1.78 0.14-0.573 0.247-1.283 0.32-2.13 0.073-0.847 0.117-1.573 0.13-2.18 0.02-0.613 0.03-1.383 0.03-2.31v0c0-0.68-0.02-1.313-0.06-1.9-0.047-0.587-0.117-1.24-0.21-1.96-0.1-0.713-0.263-1.343-0.49-1.89-0.227-0.547-0.503-1.06-0.83-1.54-0.327-0.48-0.753-0.85-1.28-1.11-0.533-0.26-1.14-0.39-1.82-0.39zM42.38-0.98v-32.61h4.54c1.4 0 3.64-0.033 6.72-0.1 3.073-0.067 5.377-0.1 6.91-0.1v0c1.313 0 2.547 0.073 3.7 0.22 1.147 0.147 2.277 0.417 3.39 0.81 1.113 0.387 2.067 0.883 2.86 1.49 0.787 0.6 1.423 1.393 1.91 2.38 0.487 0.98 0.73 2.113 0.73 3.4v0c0 1.773-0.413 3.287-1.24 4.54-0.833 1.253-2.11 2.313-3.83 3.18v0c0.68 0.293 1.273 0.673 1.78 1.14 0.507 0.473 0.893 0.88 1.16 1.22 0.267 0.347 0.527 0.923 0.78 1.73 0.253 0.8 0.403 1.327 0.45 1.58 0.047 0.253 0.153 0.877 0.32 1.87v0c0.047 0.227 0.08 0.397 0.1 0.51v0c0.06 0.653 0.337 1.847 0.83 3.58 0.487 1.733 0.73 3.063 0.73 3.99v0c0 0.587-0.18 0.88-0.54 0.88v0c-0.973 0-2.45 0.007-4.43 0.02-1.98 0.02-3.45 0.03-4.41 0.03v0c-0.387-0.033-0.97-0.05-1.75-0.05v0h-1.66c-0.327-0.1-0.647-0.603-0.96-1.51-0.307-0.913-0.527-1.94-0.66-3.08v0l-0.53-4.35c-0.1-0.353-0.177-0.607-0.23-0.76-0.06-0.16-0.163-0.35-0.31-0.57-0.147-0.22-0.347-0.37-0.6-0.45-0.253-0.08-0.573-0.12-0.96-0.12v0h-1.13v9.77c0 0.047 0 0.123 0 0.23 0 0.107 0 0.18 0 0.22 0 0.04 0 0.1 0 0.18 0 0.08-0.007 0.14-0.02 0.18-0.013 0.047-0.03 0.1-0.05 0.16-0.013 0.067-0.033 0.113-0.06 0.14-0.027 0.02-0.06 0.05-0.1 0.09-0.04 0.047-0.087 0.077-0.14 0.09-0.06 0.013-0.127 0.03-0.2 0.05-0.073 0.013-0.16 0.02-0.26 0.02v0zM56.2-20.7v0c0.033 0.033 0.083 0.1 0.15 0.2 0.067 0.107 0.13 0.193 0.19 0.26 0.067 0.067 0.133 0.107 0.2 0.12v0c0.487 0 0.973-0.053 1.46-0.16 0.493-0.1 0.993-0.273 1.5-0.52 0.513-0.247 0.93-0.62 1.25-1.12 0.32-0.507 0.48-1.11 0.48-1.81v0c0-1.693-1.63-2.54-4.89-2.54v0c-0.327 0.08-0.49 0.21-0.49 0.39v0 0.93c0 0.473 0.027 1.18 0.08 2.12 0.047 0.947 0.07 1.657 0.07 2.13zM83.79-33.89h6.25c2.227 0 4.233 0.147 6.02 0.44 1.78 0.293 3.487 0.817 5.12 1.57 1.64 0.747 3.003 1.72 4.09 2.92 1.093 1.207 1.96 2.77 2.6 4.69 0.647 1.92 0.97 4.15 0.97 6.69v0c0 1.86-0.22 3.59-0.66 5.19-0.44 1.6-1.043 2.98-1.81 4.14-0.767 1.153-1.64 2.183-2.62 3.09-0.987 0.9-2.057 1.637-3.21 2.21-1.16 0.567-2.317 1.003-3.47 1.31-1.153 0.313-2.31 0.503-3.47 0.57v0h-16.74v-32.43c0.047 0 0.133 0.01 0.26 0.03 0.133 0.013 0.223 0.02 0.27 0.02v0c0.7 0 1.763-0.073 3.19-0.22 1.42-0.147 2.49-0.22 3.21-0.22zM89.16-8.69h1.17c0.833 0 1.567-0.133 2.2-0.4 0.633-0.273 1.143-0.66 1.53-1.16 0.38-0.507 0.697-1.037 0.95-1.59 0.253-0.553 0.437-1.203 0.55-1.95 0.113-0.753 0.19-1.41 0.23-1.97 0.04-0.56 0.06-1.2 0.06-1.92v0-1.75c-0.013-0.113-0.063-0.667-0.15-1.66-0.08-0.993-0.257-1.84-0.53-2.54v0c-0.26-0.507-0.55-0.943-0.87-1.31-0.32-0.367-0.633-0.65-0.94-0.85-0.307-0.207-0.67-0.363-1.09-0.47-0.413-0.107-0.79-0.173-1.13-0.2-0.34-0.033-0.757-0.05-1.25-0.05v0 0.53h-0.73zM111.96-1.81v-29.73c0-0.98 0.04-1.55 0.12-1.71v0c0.147-0.227 0.383-0.34 0.71-0.34v0h0.59c0.26 0 0.44 0.017 0.54 0.05v0h1.27c1.64 0 4.123-0.043 7.45-0.13 3.333-0.08 5.83-0.12 7.49-0.12v0h6.49c0.427 0.047 0.64 0.26 0.64 0.64v0 8.15c-0.02 0.1-0.05 0.187-0.09 0.26-0.04 0.073-0.073 0.12-0.1 0.14-0.02 0.027-0.097 0.083-0.23 0.17-0.127 0.093-0.217 0.163-0.27 0.21v0h-11.33v3.03h1.08c0.94 0 2.38-0.033 4.32-0.1 1.933-0.067 3.423-0.1 4.47-0.1v0c0.453 0 0.763 0.09 0.93 0.27 0.16 0.18 0.24 0.433 0.24 0.76v0c0 0.08-0.017 0.217-0.05 0.41-0.033 0.2-0.05 0.34-0.05 0.42v0 0.93c0 0.06 0.01 0.193 0.03 0.4 0.013 0.2 0.02 0.373 0.02 0.52v0 0.69c0 0.353 0.017 0.71 0.05 1.07 0.033 0.36 0.05 0.67 0.05 0.93v0 0.63c-0.08 0.2-0.147 0.333-0.2 0.4-0.047 0.06-0.127 0.09-0.24 0.09v0-0.05c-0.6 0-1.637 0.043-3.11 0.13-1.473 0.08-2.65 0.12-3.53 0.12v0h-3.91v3.12c0.133 0 0.33 0.01 0.59 0.03 0.26 0.013 0.453 0.02 0.58 0.02v0c0.733 0 1.817-0.023 3.25-0.07 1.433-0.047 2.467-0.07 3.1-0.07v0h3.13c0.847 0 1.383 0.097 1.61 0.29v0c0.08 0.093 0.143 0.19 0.19 0.29v0 7.81c0 0.347-0.063 0.61-0.19 0.79-0.133 0.173-0.377 0.27-0.73 0.29v0h-24.17zM140.63-0.98v-32.61h4.54c1.4 0 3.637-0.033 6.71-0.1 3.073-0.067 5.377-0.1 6.91-0.1v0c1.32 0 2.553 0.073 3.7 0.22 1.147 0.147 2.277 0.417 3.39 0.81 1.113 0.387 2.067 0.883 2.86 1.49 0.787 0.6 1.423 1.393 1.91 2.38 0.493 0.98 0.74 2.113 0.74 3.4v0c0 1.773-0.417 3.287-1.25 4.54-0.827 1.253-2.103 2.313-3.83 3.18v0c0.68 0.293 1.273 0.673 1.78 1.14 0.507 0.473 0.893 0.88 1.16 1.22 0.267 0.347 0.527 0.923 0.78 1.73 0.253 0.8 0.403 1.327 0.45 1.58 0.053 0.253 0.16 0.877 0.32 1.87v0c0.047 0.227 0.08 0.397 0.1 0.51v0c0.067 0.653 0.343 1.847 0.83 3.58 0.487 1.733 0.73 3.063 0.73 3.99v0c0 0.587-0.18 0.88-0.54 0.88v0c-0.973 0-2.45 0.007-4.43 0.02-1.973 0.02-3.44 0.03-4.4 0.03v0c-0.393-0.033-0.98-0.05-1.76-0.05v0h-1.66c-0.327-0.1-0.643-0.603-0.95-1.51-0.313-0.913-0.533-1.94-0.66-3.08v0l-0.54-4.35c-0.1-0.353-0.177-0.607-0.23-0.76-0.06-0.16-0.163-0.35-0.31-0.57-0.147-0.22-0.347-0.37-0.6-0.45-0.247-0.08-0.567-0.12-0.96-0.12v0h-1.12v9.77c0 0.047 0 0.123 0 0.23 0 0.107 0 0.18 0 0.22 0 0.04 0 0.1 0 0.18 0 0.08-0.01 0.14-0.03 0.18-0.013 0.047-0.03 0.1-0.05 0.16-0.013 0.067-0.033 0.113-0.06 0.14-0.02 0.02-0.053 0.05-0.1 0.09-0.04 0.047-0.087 0.077-0.14 0.09-0.06 0.013-0.127 0.03-0.2 0.05-0.073 0.013-0.157 0.02-0.25 0.02v0zM154.44-20.7v0c0.033 0.033 0.083 0.1 0.15 0.2 0.067 0.107 0.133 0.193 0.2 0.26 0.06 0.067 0.123 0.107 0.19 0.12v0c0.487 0 0.977-0.053 1.47-0.16 0.487-0.1 0.987-0.273 1.5-0.52 0.513-0.247 0.927-0.62 1.24-1.12 0.32-0.507 0.48-1.11 0.48-1.81v0c0-1.693-1.627-2.54-4.88-2.54v0c-0.327 0.08-0.49 0.21-0.49 0.39v0 0.93c0 0.473 0.023 1.18 0.07 2.12 0.047 0.947 0.07 1.657 0.07 2.13z" fill="#a61713" fill-rule="nonzero" stroke="none" stroke-width="1" stroke-linecap="butt" stroke-linejoin="miter" stroke-miterlimit="10" stroke-dasharray="" stroke-dashoffset="0" font-family="none" font-weight="none" font-size="none" text-anchor="none" style="mix-blend-mode: normal" data-fill-palette-color="primary" opacity="1"></path></g></svg></g></svg></g></svg></g></svg></g><g transform="matrix(1,0,0,1,376.6650756856533,0)"><svg viewBox="0 0 131.9618994459552 362.12822400000005" height="362.12822400000005" width="131.9618994459552"><g><svg version="1.0" xmlns="http://www.w3.org/2000/svg" xmlns:xlink="http://www.w3.org/1999/xlink" x="0" y="0" viewBox="0 0.278 36.440349832164586 99.99916053091444" enable-background="new 0 0 36.439 100.277" xml:space="preserve" width="131.9618994459552" height="362.12822400000005" class="icon-icon-0" data-fill-palette-color="accent" id="icon-0"><path d="M26.47 95.631c-0.021 2.55 2.024 4.625 4.568 4.646 2.548 0.021 4.624-2.021 4.645-4.567l0.757-90.403c0.037-4.47-2.869-4.971-4.903-4.987-2.042-0.017-5.817 5.713-6.673 11C24 16.602 18.891 43.844 26.988 49.207L26.47 95.631 26.47 95.631 26.47 95.631z" fill="#ff683c" data-fill-palette-color="accent"></path><path d="M4.888 95.452L5.506 37.22C2.192 37.193 0.562 33.246 0 30.39L2.006 0.278 4.72 24.584 7.263 0.32l2.711 24.308 3.124-24.259 2.131 24.303 3.12-24.259 1.497 30.143c-0.602 2.846-2.064 6.766-5.386 6.739l-0.353 58.233c-0.021 2.548-2.106 4.59-4.649 4.568C6.914 100.075 4.868 98 4.888 95.452L4.888 95.452 4.888 95.452z" fill="#ff683c" data-fill-palette-color="accent"></path></svg></g></svg></g></svg></g><defs></defs></svg><rect width="347.2046085326218" height="247.2" fill="none" stroke="none" visibility="hidden"></rect></g></svg></g></svg>